<svg xmlns="http://www.w3.org/2000/svg" width="373" height="77" fill="none" viewBox="0 0 373 77">
  <g clip-path="url(#a)">
    <path fill="#ED6D25" d="m104.948.028-24.05 10.59c-.08.04-.15.1-.18.19l-16.29 41.04c-.03.08-.03.18 0 .26l10.24 24.19c.12.29.53.28.64 0l30.1-75.82c.11-.29-.18-.57-.46-.45Zm-74.18 76.28 10.24-24.19c.04-.08.04-.18 0-.26l-16.29-41.05a.37.37 0 0 0-.18-.19L.488.028c-.29-.12-.58.16-.46.45l30.1 75.82c.11.29.52.29.64 0v.01Z"/>
    <path fill="#232323" d="m63.158 18.369-10.3 4.53c-.09.04-.19.04-.28 0l-10.3-4.53c-.28-.13-.58.16-.46.45l10.58 26.65c.12.29.53.29.65 0l10.58-26.65c.11-.29-.18-.57-.46-.45h-.01Zm65.444 57.807h-11.05v-30.03h-12.12l3.8-9.71h27.69v9.71h-8.32v30.03Zm33.1-11.89h-16.24c.04 1.45.2 2.49.5 3.13.45.97 1.34 1.45 2.68 1.45s2.18-.48 2.62-1.45c.22-.52.35-1.04.39-1.56l9.55 3.01c-.48 1.75-1.36 3.2-2.62 4.35-1.27 1.15-2.63 1.99-4.1 2.51-1.47.52-3.41.78-5.83.78s-4.37-.26-5.86-.78c-1.49-.52-2.87-1.36-4.13-2.51-1.41-1.3-2.29-2.77-2.62-4.41-.33-1.64-.5-4.11-.5-7.42 0-3.31.17-5.78.5-7.4.33-1.62 1.21-3.08 2.62-4.38 1.26-1.15 2.64-1.99 4.13-2.51 1.49-.52 3.44-.78 5.86-.78 2.42 0 4.36.26 5.83.78 1.47.52 2.84 1.36 4.1 2.51 1.34 1.27 2.2 2.68 2.57 4.24.37 1.56.56 3.78.56 6.64v3.8h-.01Zm-16.19-6.03h6.2c-.04-1.38-.19-2.32-.45-2.85-.45-.97-1.32-1.45-2.62-1.45s-2.23.48-2.68 1.45c-.26.52-.41 1.47-.45 2.85Zm51.02 17.92h-11.95l-6.64-11.5-1.73 1.79v9.71h-10.61v-40.86l10.61-1.12v19.15l6.08-6.64h12.95l-10.16 10.55 11.44 18.92h.01Zm27.63 0h-10.61v-18.25c0-1.04-.17-1.79-.5-2.23-.33-.45-.89-.67-1.67-.67-.86 0-1.73.41-2.62 1.23v19.93h-10.61v-29.47h10.61v1.56c2.08-1.3 4.43-1.95 7.03-1.95 2.34 0 4.33.82 5.97 2.46.97.97 1.61 2.1 1.93 3.41.32 1.3.47 3.14.47 5.53v18.48-.03Zm27.19-2.96c-1.27 1.15-2.63 1.99-4.1 2.51-1.47.52-3.41.78-5.83.78s-4.37-.26-5.86-.78c-1.49-.52-2.87-1.36-4.13-2.51-1.41-1.3-2.29-2.74-2.62-4.33-.33-1.58-.5-4.08-.5-7.51 0-3.43.17-5.78.5-7.4.33-1.62 1.21-3.08 2.62-4.38 1.26-1.15 2.64-1.99 4.13-2.51 1.49-.52 3.44-.78 5.86-.78 2.42 0 4.36.26 5.83.78 1.47.52 2.84 1.36 4.1 2.51 1.41 1.3 2.29 2.76 2.62 4.38.33 1.62.5 4.08.5 7.4 0 3.32-.17 5.83-.5 7.45-.33 1.62-1.21 3.08-2.62 4.38v.01Zm-7.93-6.64c.3-.63.45-2.36.45-5.19 0-2.83-.15-4.5-.45-5.14-.37-.82-1.04-1.23-2.01-1.23-.97 0-1.69.41-2.07 1.23-.3.63-.45 2.34-.45 5.14s.15 4.56.45 5.19c.37.82 1.06 1.23 2.07 1.23 1.01 0 1.64-.41 2.01-1.23Z"/>
    <path fill="#ED6D25" d="M294.102 76.176h-10.06l-4.32-15.29-4.72 15.29h-10.12l-8.62-39.74h11.4l3.84 18.98 3.58-12.56h10.13l3.53 12.57 4.75-18.99h10.99l-10.37 39.74h-.01Zm23.95-32.87h-10.66v-6.83l10.66-1.12v7.95Zm0 32.88h-10.66v-29.47h10.66v29.47Zm23.83-9.38 2.18 7.42c-3.05 1.53-6.14 2.29-9.27 2.29-2.64 0-4.8-.73-6.48-2.18-2.12-1.86-3.18-4.58-3.18-8.15v-10.77h-4.13v-8.71h4.13v-10.46l10.61-1.12v11.58h6.92v8.71h-6.92v9.99c0 1.9.86 2.85 2.57 2.85 1.19 0 2.38-.48 3.57-1.45Zm30.53 9.37h-10.61v-18.25c0-1.04-.17-1.79-.5-2.23-.33-.44-.89-.67-1.67-.67-.86 0-1.73.41-2.62 1.23v19.93h-10.61v-39.93l10.61-1.12v13.14c2.08-1.3 4.43-1.95 7.03-1.95 2.34 0 4.33.82 5.97 2.46.97.97 1.61 2.1 1.93 3.41.32 1.3.47 3.14.47 5.53v18.48-.03Z"/>
  </g>
  <defs>
    <clipPath id="a">
      <path fill="#fff" d="M0 0h372.412v76.516H0z"/>
    </clipPath>
  </defs>
</svg>
