<svg xmlns="http://www.w3.org/2000/svg" width="106" height="77" fill="none" viewBox="0 0 106 77">
  <path fill="#ED6D25" d="m30.768 76.308 10.24-24.19c.04-.08.04-.18 0-.26l-16.29-41.05a.37.37 0 0 0-.18-.19L.488.028c-.29-.12-.58.16-.46.45l30.1 75.82c.11.29.52.29.64 0v.01Z"/>
  <path fill="#232323" d="m63.405 24.615-10.3 4.53c-.09.04-.19.04-.28 0l-10.3-4.53c-.28-.13-.58.16-.46.45l10.58 26.65c.12.29.53.29.65 0l10.58-26.65c.11-.29-.18-.57-.46-.45h-.01Z"/>
  <path fill="#ED6D25" d="m105.441.03-24.05 10.59c-.08.04-.15.1-.18.19l-16.29 41.04c-.03.08-.03.18 0 .26l10.24 24.19c.12.29.53.28.64 0l30.1-75.82c.11-.29-.18-.57-.46-.45Z"/>
</svg>
